# xmcd
#
# Track frame offsets: 
#        150
#        17128
#        33063
#        47796
#        65146
#        94028
#        122697
#        138548
#        155727
#        174032
#        188735
#        206700
#        219349
#
# Disc length: 3065 seconds
#
# Revision: 1
# Processed by: cddbd v1.5.2PL0 Copyright (c) Steve Scherf et al.
# Submitted via: ExactAudioCopy v1.1
#
DISCID=b30bf70d
DTITLE=Dennis Jones - Both Sides of the Track
DYEAR=2016
DGENRE=Blues
TTITLE0=Enjoy the Ride
TTITLE1=It All Depends
TTITLE2=Better than Him
TTITLE3=Nobodys Slave
TTITLE4=Mr Right
TTITLE5=The Machine
TTITLE6=Number Two
TTITLE7=Skin and Bone
TTITLE8=When Youre Not Around
TTITLE9=What
TTITLE10=Shines On You
TTITLE11=I Cant Stop
TTITLE12=Lonely Joint
EXTD=
EXTT0=
EXTT1=
EXTT2=
EXTT3=
EXTT4=
EXTT5=
EXTT6=
EXTT7=
EXTT8=
EXTT9=
EXTT10=
EXTT11=
EXTT12=
PLAYORDER=
